# xmcd CD database file
#
# Track frame offsets:
#	150
#	16319
#	39753
#	57931
#	77028
#
# Disc length: 1271 seconds
#
# Revision: 0
# Processed by: cddbd v1.5.1PL2 Copyright (c) Steve Scherf et al.
# Submitted via: CDex 1.51
#
DISCID=2e04f505
DTITLE=15JAM - CHU☆ING
DYEAR=1900
DGENRE=JPop
TTITLE0=みずたま
TTITLE1=senaka
TTITLE2=夏色のスカート
TTITLE3=さくら畑
TTITLE4=冷凍みかん
EXTD=
EXTT0=
EXTT1=
EXTT2=
EXTT3=
EXTT4=
PLAYORDER=
